{"title":"Just Show Up - Bruce Menfee","uid":15463493,"size":316786562,"categoryP":"video","categoryS":"other","magnet":"?xt=urn:btih:6de81318bd7d33eb9079e97ae9187cb03279cc9e&amp;dn=Just+Show+Up+-+Bruce+Menfee&amp;tr=udp%3A%2F%2Ftracker.leechers-paradise.org%3A6969&amp;tr=udp%3A%2F%2Fzer0day.ch%3A1337&amp;tr=udp%3A%2F%2Fopen.demonii.com%3A1337&amp;tr=udp%3A%2F%2Ftracker.coppersurfer.tk%3A6969&amp;tr=udp%3A%2F%2Fexodus.desync.com%3A6969","seeders":0,"leechers":0,"uploader":"davidrpeet","files":1,"time":1470072386,"description":"Just Show Up - Bruce Menfee\r\nWeekly sermons from CrossRoads Church in Decatur, Texas\r\n\r\n\r\n\r\nGeneral\r\nComplete name                            : 20160731 - Just Show Up - Bruce Menfee.mp4\r\nFormat                                   : MPEG-4\r\nFormat profile                           : Base Media / Version 2\r\nCodec ID                                 : mp42\r\nFile size                                : 302 MiB\r\nDuration                                 : 24mn 0s\r\nOverall bit rate mode                    : Variable\r\nOverall bit rate                         : 1 759 Kbps\r\nMovie name                               : Just Show Up\r\nAlbum                                    : CrossRoads Church \r\nAlbum/Performer                          : Darren Embree\r\nPerformer                                : Bruce Menfee\r\nComposer                                 : http://crossroadspeople.com/\r\nGenre                                    : Speech\r\nRecorded date                            : 2016\r\nEncoded date                             : UTC 2016-08-01 03:01:09\r\nTagged date                              : UTC 2016-08-01 03:01:09\r\nCover                                    : Yes\r\nComment                                  : CrossRoads To Go Video Podcasts\r\n\r\nVideo\r\nID                                       : 1\r\nFormat                                   : AVC\r\nFormat/Info                              : Advanced Video Codec\r\nFormat profile                           :   \r\nFormat settings, CABAC                   : Yes\r\nFormat settings, ReFrames                : 4 frames\r\nCodec ID                                 : avc1\r\nCodec ID/Info                            : Advanced Video Coding\r\nDuration                                 : 24mn 0s\r\nBit rate                                 : 1 500 Kbps\r\nWidth                                    : 720 pixels\r\nHeight                                   : 540 pixels\r\nDisplay aspect ratio                     : 4:3\r\nFrame rate mode                          : Constant\r\nFrame rate                               : 29.970 fps\r\nColor space                              : YUV\r\nChroma subsampling                       : 4:2:0\r\nBit depth                                : 8 bits\r\nScan type                                : Progressive\r\nBits/(Pixel*Frame)                       : 0.129\r\nStream size                              : 257 MiB (85%)\r\nWriting library                          : x264 core 148 r10 3f5ed56\r\nEncoded date                             : UTC 2016-08-01 03:01:09\r\nTagged date                              : UTC 2016-08-01 03:01:09\r\nColor primaries                          : BT.601 NTSC\r\nTransfer characteristics                 : BT.470 System B, BT.470 System G\r\nMatrix coefficients                      : BT.601\r\n\r\nAudio\r\nID                                       : 2\r\nFormat                                   : AAC\r\nFormat/Info                              : Advanced Audio Codec\r\nFormat profile                           : LC\r\nCodec ID                                 : 40\r\nDuration                                 : 24mn 0s\r\nBit rate mode                            : Variable\r\nBit rate                                 : 256 Kbps\r\nChannel(s)                               : 2 channels\r\nChannel positions                        : Front: L R\r\nSampling rate                            : 48.0 KHz\r\nCompression mode                         : Lossy\r\nStream size                              : 44.0 MiB (15%)\r\nEncoded date                             : UTC 2016-08-01 03:01:09\r\nTagged date                              : UTC 2016-08-01 03:01:09","torrent":{"xt":"urn:btih:6de81318bd7d33eb9079e97ae9187cb03279cc9e","amp;dn":"Just+Show+Up+-+Bruce+Menfee","amp;tr":["udp%3A%2F%2Ftracker.leechers-paradise.org%3A6969","udp%3A%2F%2Fzer0day.ch%3A1337","udp%3A%2F%2Fopen.demonii.com%3A1337","udp%3A%2F%2Ftracker.coppersurfer.tk%3A6969","udp%3A%2F%2Fexodus.desync.com%3A6969"],"infoHash":"6de81318bd7d33eb9079e97ae9187cb03279cc9e","infoHashBuffer":{"type":"Buffer","data":[109,232,19,24,189,125,51,235,144,121,233,122,233,24,124,176,50,121,204,158]},"announce":[],"urlList":[]}}